<svg width="26" height="26" viewBox="0 0 26 26" fill="none" xmlns="http://www.w3.org/2000/svg">
<path d="M13.018 0C5.96652 0 0.197083 5.75662 0.197083 12.8466C0.197083 19.2571 4.88956 24.5778 11.018 25.5394V16.5647H7.76145V12.8466H11.018V10.0132C11.018 6.79512 12.9283 5.02582 15.8643 5.02582C17.2618 5.02582 18.7234 5.26942 18.7234 5.26942V8.43621H17.1079C15.5181 8.43621 15.0181 9.42342 15.0181 10.4363V12.8466H18.5823L18.0054 16.5647H15.0181V25.5394C18.0393 25.0623 20.7904 23.5207 22.7747 21.1932C24.759 18.8656 25.8459 15.9053 25.839 12.8466C25.839 5.75662 20.0696 0 13.018 0V0Z" fill="white"/>
</svg>
