<svg width="26" height="26" viewBox="0 0 26 26" fill="none" xmlns="http://www.w3.org/2000/svg">
<path d="M7.79419 0H18.5638C22.6665 0 26 3.33345 26 7.43616V18.2058C26 20.178 25.2165 22.0694 23.822 23.4639C22.4274 24.8585 20.536 25.6419 18.5638 25.6419H7.79419C3.69148 25.6419 0.358032 22.3085 0.358032 18.2058V7.43616C0.358032 5.46397 1.14148 3.57255 2.53603 2.178C3.93058 0.78345 5.822 0 7.79419 0V0ZM7.53777 2.56419C6.31365 2.56419 5.13967 3.05047 4.27409 3.91605C3.4085 4.78164 2.92222 5.95562 2.92222 7.17974V18.4622C2.92222 21.0136 4.9864 23.0777 7.53777 23.0777H18.8202C20.0443 23.0777 21.2183 22.5915 22.0839 21.7259C22.9495 20.8603 23.4358 19.6863 23.4358 18.4622V7.17974C23.4358 4.62837 21.3716 2.56419 18.8202 2.56419H7.53777ZM19.91 4.48734C20.335 4.48734 20.7427 4.65618 21.0432 4.95673C21.3438 5.25728 21.5126 5.66492 21.5126 6.08996C21.5126 6.515 21.3438 6.92263 21.0432 7.22318C20.7427 7.52373 20.335 7.69258 19.91 7.69258C19.485 7.69258 19.0773 7.52373 18.7768 7.22318C18.4762 6.92263 18.3074 6.515 18.3074 6.08996C18.3074 5.66492 18.4762 5.25728 18.7768 4.95673C19.0773 4.65618 19.485 4.48734 19.91 4.48734ZM13.179 6.41048C14.8792 6.41048 16.5097 7.08587 17.7119 8.28807C18.9141 9.49027 19.5895 11.1208 19.5895 12.821C19.5895 14.5211 18.9141 16.1517 17.7119 17.3539C16.5097 18.5561 14.8792 19.2314 13.179 19.2314C11.4788 19.2314 9.8483 18.5561 8.6461 17.3539C7.4439 16.1517 6.76851 14.5211 6.76851 12.821C6.76851 11.1208 7.4439 9.49027 8.6461 8.28807C9.8483 7.08587 11.4788 6.41048 13.179 6.41048V6.41048ZM13.179 8.97467C12.1589 8.97467 11.1806 9.37991 10.4593 10.1012C9.73794 10.8225 9.33271 11.8009 9.33271 12.821C9.33271 13.8411 9.73794 14.8194 10.4593 15.5407C11.1806 16.262 12.1589 16.6673 13.179 16.6673C14.1991 16.6673 15.1774 16.262 15.8987 15.5407C16.6201 14.8194 17.0253 13.8411 17.0253 12.821C17.0253 11.8009 16.6201 10.8225 15.8987 10.1012C15.1774 9.37991 14.1991 8.97467 13.179 8.97467Z" fill="white"/>
</svg>
