<svg width="57" height="75" viewBox="0 0 57 75" fill="none" xmlns="http://www.w3.org/2000/svg">
<g filter="url(#filter0_d)">
<path d="M18.4062 28.6719C18.4062 30.1367 18.1377 31.272 17.6006 32.0776C17.0635 32.8589 16.3555 33.4326 15.4766 33.7988C14.5977 34.165 13.5967 34.3848 12.4736 34.458C11.3506 34.5068 10.2031 34.5312 9.03125 34.5312V65H4.34375V1.71875H9.03125C11.375 1.71875 13.1816 1.91406 14.4512 2.30469C15.7207 2.69531 16.6484 3.18359 17.2344 3.76953C17.8203 4.35547 18.1621 4.99023 18.2598 5.67383C18.3574 6.35742 18.4062 6.99219 18.4062 7.57812V28.6719ZM13.7188 7.57812C13.7188 6.99219 13.6333 6.54053 13.4624 6.22314C13.3159 5.90576 13.0596 5.67383 12.6934 5.52734C12.3271 5.38086 11.8389 5.29541 11.2285 5.271C10.6426 5.24658 9.91016 5.23438 9.03125 5.23438V31.0156C9.61719 31.0156 10.1909 31.0034 10.7524 30.979C11.314 30.9546 11.8145 30.8691 12.2539 30.7227C12.6934 30.5762 13.0474 30.3442 13.3159 30.0269C13.5845 29.7095 13.7188 29.2578 13.7188 28.6719V7.57812ZM35.9844 59.7266C35.9844 60.752 35.7891 61.6431 35.3984 62.3999C35.0322 63.1323 34.5317 63.7427 33.897 64.231C33.2622 64.7192 32.542 65.0732 31.7363 65.293C30.9307 65.5371 30.1006 65.6592 29.2461 65.6592C28.3428 65.6592 27.4517 65.5249 26.5728 65.2563C25.6938 65.0122 24.9126 64.646 24.229 64.1577C23.5454 63.645 22.9839 63.0225 22.5444 62.29C22.1294 61.5332 21.9219 60.6787 21.9219 59.7266V14.0234C21.9219 13.0957 22.1294 12.2778 22.5444 11.5698C22.9839 10.8374 23.5454 10.2271 24.229 9.73877C24.937 9.25049 25.7305 8.88428 26.6094 8.64014C27.4883 8.37158 28.3794 8.2373 29.2827 8.2373C30.1372 8.2373 30.9673 8.35937 31.7729 8.60352C32.5786 8.82324 33.2866 9.17725 33.897 9.66553C34.5317 10.1294 35.0322 10.7275 35.3984 11.46C35.7891 12.1924 35.9844 13.0469 35.9844 14.0234V59.7266ZM31.2969 14.0234C31.2969 13.1934 31.0894 12.6074 30.6743 12.2656C30.2837 11.8994 29.8198 11.7163 29.2827 11.7163C28.9653 11.7163 28.6479 11.7773 28.3306 11.8994C28.0132 11.9971 27.7202 12.1558 27.4517 12.3755C27.2075 12.5708 27 12.8149 26.8291 13.1079C26.6826 13.3765 26.6094 13.6816 26.6094 14.0234V59.7266C26.6094 60.0684 26.6826 60.3857 26.8291 60.6787C27 60.9717 27.2075 61.2158 27.4517 61.4111C27.7202 61.6064 28.001 61.7651 28.2939 61.8872C28.6113 61.9849 28.9287 62.0337 29.2461 62.0337C29.7832 62.0337 30.2593 61.8628 30.6743 61.521C31.0894 61.1548 31.2969 60.5566 31.2969 59.7266V14.0234ZM39.5 7.57812C39.5 6.40625 39.6831 5.38086 40.0493 4.50195C40.4155 3.62305 40.9038 2.89062 41.5142 2.30469C42.1245 1.71875 42.8081 1.2793 43.5649 0.986328C44.3462 0.693359 45.1396 0.546875 45.9453 0.546875C46.751 0.546875 47.5322 0.693359 48.2891 0.986328C49.0703 1.2793 49.7661 1.71875 50.3765 2.30469C50.9868 2.89062 51.4751 3.62305 51.8413 4.50195C52.2075 5.38086 52.3906 6.40625 52.3906 7.57812V27.5C52.3906 27.793 52.3662 28.147 52.3174 28.562C52.293 28.9771 52.1709 29.4043 51.9512 29.8438C51.7314 30.2832 51.3774 30.7104 50.8892 31.1255C50.4253 31.5405 49.7539 31.8945 48.875 32.1875C49.7539 32.4805 50.4253 32.8345 50.8892 33.2495C51.3774 33.6646 51.7314 34.0918 51.9512 34.5312C52.1709 34.9707 52.293 35.3979 52.3174 35.813C52.3662 36.228 52.3906 36.582 52.3906 36.875V59.1406C52.3906 60.3125 52.2075 61.3379 51.8413 62.2168C51.4751 63.0957 50.9868 63.8281 50.3765 64.4141C49.7661 65 49.0703 65.4395 48.2891 65.7324C47.5322 66.0254 46.751 66.1719 45.9453 66.1719C45.1396 66.1719 44.3462 66.0254 43.5649 65.7324C42.8081 65.4395 42.1245 65 41.5142 64.4141C40.9038 63.8281 40.4155 63.0957 40.0493 62.2168C39.6831 61.3379 39.5 60.3125 39.5 59.1406V42.7344H44.1875V59.1406C44.1875 60.3125 44.3706 61.1914 44.7368 61.7773C45.103 62.3633 45.5059 62.6562 45.9453 62.6562C46.3848 62.6562 46.7876 62.3633 47.1538 61.7773C47.52 61.1914 47.7031 60.3125 47.7031 59.1406V36.875C47.7031 36.2891 47.6299 35.8374 47.4834 35.52C47.3613 35.2026 47.1904 34.9707 46.9707 34.8242C46.751 34.6777 46.4946 34.5923 46.2017 34.5679C45.9331 34.5435 45.6523 34.5312 45.3594 34.5312H43.0156V29.8438H45.3594C45.6523 29.8438 45.9331 29.8315 46.2017 29.8071C46.4946 29.7827 46.751 29.6973 46.9707 29.5508C47.1904 29.4043 47.3613 29.1724 47.4834 28.855C47.6299 28.5132 47.7031 28.0493 47.7031 27.4634V7.57812C47.7031 6.40625 47.52 5.52734 47.1538 4.94141C46.7876 4.35547 46.3848 4.0625 45.9453 4.0625C45.5059 4.0625 45.103 4.35547 44.7368 4.94141C44.3706 5.52734 44.1875 6.40625 44.1875 7.57812V22.8125H39.5V7.57812Z" fill="#FEFEFE"/>
</g>
<defs>
<filter id="filter0_d" x="0.34375" y="0.546875" width="56.0469" height="73.625" filterUnits="userSpaceOnUse" color-interpolation-filters="sRGB">
<feFlood flood-opacity="0" result="BackgroundImageFix"/>
<feColorMatrix in="SourceAlpha" type="matrix" values="0 0 0 0 0 0 0 0 0 0 0 0 0 0 0 0 0 0 127 0"/>
<feOffset dy="4"/>
<feGaussianBlur stdDeviation="2"/>
<feColorMatrix type="matrix" values="0 0 0 0 0 0 0 0 0 0 0 0 0 0 0 0 0 0 0.25 0"/>
<feBlend mode="normal" in2="BackgroundImageFix" result="effect1_dropShadow"/>
<feBlend mode="normal" in="SourceGraphic" in2="effect1_dropShadow" result="shape"/>
</filter>
</defs>
</svg>
