<svg width="299" height="316" viewBox="0 0 299 316" fill="none" xmlns="http://www.w3.org/2000/svg">
<path d="M258.777 118.507L187.705 152.825L264.706 170.145L185.819 172.589L249.118 219.731L176.057 189.878L214.71 258.689L160.108 201.701L167.43 280.285L140.728 206.014L115.455 280.783L121.27 202.073L67.77 260.097L105.097 190.558L32.6215 221.805L95.0054 173.46L16.0866 172.527L92.7411 153.735L21.0242 120.785L98.695 134.795L46.5807 75.5234L111.838 119.914L88.3371 44.5701L129.897 111.666L139.073 33.2766L149.75 111.476L190.017 43.5958L167.964 119.377L232.358 73.7434L181.389 134.003L258.777 118.507Z" fill="#E98B07"/>
</svg>
