<svg width="26" height="26" viewBox="0 0 26 26" fill="none" xmlns="http://www.w3.org/2000/svg">
<path d="M16.7924 0H8.92033C1.74059 0 0.0354004 1.70519 0.0354004 8.88493V16.757C0.0354004 23.9367 1.74059 25.6419 8.92033 25.6419H16.7924C23.9721 25.6419 25.6773 23.9367 25.6773 16.757V8.88493C25.6773 1.70519 23.9721 0 16.7924 0ZM20.7413 18.2955H18.8694C18.1642 18.2955 17.9463 17.7186 16.7027 16.4493C15.5744 15.3852 15.0872 15.2313 14.818 15.2313C14.4462 15.2313 14.3308 15.3339 14.3308 15.8724V17.5519C14.3308 18.0006 14.1897 18.2827 12.9974 18.2827C11.023 18.2827 8.83058 17.0775 7.29207 14.8595C4.97147 11.603 4.34324 9.14135 4.34324 8.65415C4.34324 8.38491 4.43299 8.12849 4.97147 8.12849H6.85615C7.33053 8.12849 7.51002 8.33363 7.68951 8.84646C8.61262 11.5389 10.1511 13.8466 10.7794 13.8466C11.023 13.8466 11.1255 13.7313 11.1255 13.1415V10.385C11.0614 9.12853 10.3819 9.01314 10.3819 8.5644C10.3819 8.33363 10.5614 8.12849 10.8563 8.12849H13.7923C14.1897 8.12849 14.3308 8.33363 14.3308 8.82082V12.5261C14.3308 12.9235 14.4974 13.0646 14.6257 13.0646C14.8564 13.0646 15.0616 12.9235 15.4847 12.4876C16.8309 10.9876 17.7924 8.66697 17.7924 8.66697C17.9206 8.39773 18.1258 8.14131 18.6258 8.14131H20.4592C21.0233 8.14131 21.1515 8.43619 21.0233 8.83364C20.7925 9.92343 18.5104 13.1415 18.536 13.1415C18.3309 13.462 18.254 13.603 18.536 13.9748C18.7284 14.2441 19.3822 14.8082 19.8181 15.3082C20.613 16.2185 21.2285 16.975 21.3951 17.5006C21.5362 18.0263 21.2797 18.2955 20.7413 18.2955V18.2955Z" fill="white"/>
</svg>
