<svg width="26" height="26" viewBox="0 0 26 26" fill="none" xmlns="http://www.w3.org/2000/svg">
<path d="M12.8081 7.63742e-05C5.8079 7.63742e-05 0.102568 5.70542 0.102568 12.7057C0.102568 14.9494 0.692332 17.1289 1.79494 19.0521L0 25.6421L6.73101 23.8728C8.59005 24.8856 10.6799 25.4241 12.8081 25.4241C19.8084 25.4241 25.5137 19.7188 25.5137 12.7185C25.5137 9.32094 24.1932 6.12851 21.7956 3.73099C20.6202 2.54367 19.2201 1.60227 17.6771 0.961716C16.134 0.321158 14.4789 -0.00574395 12.8081 7.63742e-05V7.63742e-05ZM12.821 2.14118C15.6416 2.14118 18.2827 3.24379 20.2828 5.24386C21.2643 6.22512 22.0426 7.39051 22.5728 8.67317C23.103 9.95584 23.3748 11.3306 23.3726 12.7185C23.3726 18.5392 18.6289 23.2702 12.8081 23.2702C10.9106 23.2702 9.0516 22.7702 7.43616 21.7958L7.05153 21.5778L3.05139 22.6291L4.11553 18.7316L3.85911 18.3213C2.80002 16.64 2.23984 14.6927 2.24367 12.7057C2.25649 6.88495 6.98743 2.14118 12.821 2.14118V2.14118ZM8.30798 6.83367C8.10285 6.83367 7.75668 6.91059 7.4618 7.23112C7.17974 7.55164 6.34638 8.33372 6.34638 9.88506C6.34638 11.4492 7.48744 12.9493 7.62847 13.1672C7.80797 13.3852 9.88496 16.5904 13.0774 17.9495C13.8338 18.2956 14.4236 18.488 14.8851 18.629C15.6416 18.8726 16.3339 18.8341 16.8852 18.7572C17.5006 18.6674 18.7571 17.9879 19.0263 17.2443C19.2955 16.5007 19.2956 15.8725 19.2186 15.7314C19.1289 15.6032 18.9237 15.5263 18.6032 15.3853C18.2827 15.2058 16.7185 14.4365 16.4365 14.3339C16.1416 14.2314 15.9621 14.1801 15.7185 14.4878C15.5134 14.8083 14.898 15.5263 14.7185 15.7314C14.5262 15.9494 14.3467 15.975 14.039 15.8212C13.7056 15.6545 12.6799 15.3212 11.4748 14.2442C10.526 13.398 9.89778 12.3595 9.70547 12.039C9.55162 11.7313 9.69265 11.539 9.8465 11.3979C9.98753 11.2569 10.1927 11.0261 10.3209 10.8338C10.4875 10.6543 10.5388 10.5133 10.6414 10.3082C10.744 10.0902 10.6927 9.91071 10.6158 9.75685C10.5388 9.61582 9.89778 8.02602 9.62854 7.39779C9.37212 6.78238 9.11571 6.85931 8.91057 6.84649C8.73108 6.84649 8.52594 6.83367 8.30798 6.83367V6.83367Z" fill="white"/>
</svg>
