<svg width="61" height="60" viewBox="0 0 61 60" fill="none" xmlns="http://www.w3.org/2000/svg">
<path d="M30.6998 0C14.1998 0 0.699829 13.47 0.699829 30.06C0.699829 45.06 11.6798 57.5099 26.0198 59.7599V38.76H18.3998V30.06H26.0198V23.43C26.0198 15.9 30.4898 11.76 37.3598 11.76C40.6298 11.76 44.0498 12.33 44.0498 12.33V19.74H40.2698C36.5498 19.74 35.3798 22.05 35.3798 24.42V30.06H43.7198L42.3698 38.76H35.3798V59.7599C42.4491 58.6435 48.8864 55.0365 53.5295 49.5901C58.1727 44.1438 60.7158 37.2169 60.6998 30.06C60.6998 13.47 47.1998 0 30.6998 0V0Z" fill="white"/>
</svg>
