<svg width="61" height="60" viewBox="0 0 61 60" fill="none" xmlns="http://www.w3.org/2000/svg">
<path d="M18.0998 0H43.2998C52.8997 0 60.6997 7.79999 60.6997 17.4V42.5999C60.6997 47.2147 58.8665 51.6404 55.6034 54.9036C52.3403 58.1667 47.9145 59.9999 43.2998 59.9999H18.0998C8.49982 59.9999 0.699829 52.1999 0.699829 42.5999V17.4C0.699829 12.7852 2.53304 8.35946 5.79616 5.09633C9.05929 1.83321 13.485 0 18.0998 0V0ZM17.4998 5.99999C14.6355 5.99999 11.8884 7.13784 9.86306 9.16323C7.83767 11.1886 6.69982 13.9356 6.69982 16.8V43.1999C6.69982 49.1699 11.5298 53.9999 17.4998 53.9999H43.8998C46.7641 53.9999 49.5111 52.8621 51.5365 50.8367C53.5619 48.8113 54.6997 46.0643 54.6997 43.1999V16.8C54.6997 10.83 49.8697 5.99999 43.8998 5.99999H17.4998ZM46.4497 10.5C47.4443 10.5 48.3981 10.8951 49.1014 11.5983C49.8047 12.3016 50.1997 13.2554 50.1997 14.25C50.1997 15.2445 49.8047 16.1984 49.1014 16.9016C48.3981 17.6049 47.4443 18 46.4497 18C45.4552 18 44.5014 17.6049 43.7981 16.9016C43.0948 16.1984 42.6998 15.2445 42.6998 14.25C42.6998 13.2554 43.0948 12.3016 43.7981 11.5983C44.5014 10.8951 45.4552 10.5 46.4497 10.5ZM30.6998 15C34.678 15 38.4933 16.5803 41.3064 19.3934C44.1194 22.2064 45.6998 26.0217 45.6998 29.9999C45.6998 33.9782 44.1194 37.7935 41.3064 40.6065C38.4933 43.4196 34.678 44.9999 30.6998 44.9999C26.7215 44.9999 22.9062 43.4196 20.0932 40.6065C17.2802 37.7935 15.6998 33.9782 15.6998 29.9999C15.6998 26.0217 17.2802 22.2064 20.0932 19.3934C22.9062 16.5803 26.7215 15 30.6998 15V15ZM30.6998 21C28.3128 21 26.0237 21.9482 24.3358 23.636C22.648 25.3238 21.6998 27.613 21.6998 29.9999C21.6998 32.3869 22.648 34.6761 24.3358 36.3639C26.0237 38.0517 28.3128 38.9999 30.6998 38.9999C33.0867 38.9999 35.3759 38.0517 37.0637 36.3639C38.7516 34.6761 39.6998 32.3869 39.6998 29.9999C39.6998 27.613 38.7516 25.3238 37.0637 23.636C35.3759 21.9482 33.0867 21 30.6998 21Z" fill="white"/>
</svg>
