<svg width="61" height="60" viewBox="0 0 61 60" fill="none" xmlns="http://www.w3.org/2000/svg">
<path d="M39.9099 0H21.4899C4.68995 0 0.699951 3.99 0.699951 20.79V39.2099C0.699951 56.0099 4.68995 59.9999 21.4899 59.9999H39.9099C56.7099 59.9999 60.6998 56.0099 60.6998 39.2099V20.79C60.6998 3.99 56.7099 0 39.9099 0ZM49.1499 42.8099H44.7699C43.1199 42.8099 42.6099 41.4599 39.6999 38.4899C37.0599 35.9999 35.9199 35.6399 35.2899 35.6399C34.4199 35.6399 34.1499 35.8799 34.1499 37.1399V41.0699C34.1499 42.1199 33.8199 42.7799 31.0299 42.7799C26.4099 42.7799 21.2799 39.9599 17.6799 34.7699C12.2499 27.15 10.7799 21.39 10.7799 20.25C10.7799 19.62 10.9899 19.02 12.2499 19.02H16.6599C17.7699 19.02 18.1899 19.5 18.6099 20.7C20.7699 27 24.3699 32.3999 25.8399 32.3999C26.4099 32.3999 26.6499 32.1299 26.6499 30.7499V24.3C26.4999 21.36 24.9099 21.09 24.9099 20.04C24.9099 19.5 25.3299 19.02 26.0199 19.02H32.8899C33.8199 19.02 34.1499 19.5 34.1499 20.64V29.31C34.1499 30.2399 34.5399 30.5699 34.8399 30.5699C35.3799 30.5699 35.8599 30.2399 36.8499 29.2199C39.9999 25.71 42.2499 20.28 42.2499 20.28C42.5499 19.65 43.0299 19.05 44.1999 19.05H48.4899C49.8099 19.05 50.1099 19.74 49.8099 20.67C49.2699 23.22 43.9299 30.7499 43.9899 30.7499C43.5099 31.4999 43.3299 31.8299 43.9899 32.6999C44.4399 33.3299 45.9699 34.6499 46.9899 35.8199C48.8499 37.9499 50.2899 39.7199 50.6799 40.9499C51.0099 42.1799 50.4099 42.8099 49.1499 42.8099Z" fill="white"/>
</svg>
