<svg width="60" height="60" viewBox="0 0 60 60" fill="none" xmlns="http://www.w3.org/2000/svg">
<path d="M29.97 0.000178709C13.59 0.000178709 0.24 13.3502 0.24 29.7301C0.24 34.9801 1.62 40.0801 4.2 44.5801L0 60.0001L15.75 55.8601C20.1 58.2301 24.99 59.4901 29.97 59.4901C46.3499 59.4901 59.6999 46.1401 59.6999 29.7601C59.6999 21.8102 56.6099 14.3402 50.9999 8.73017C48.2495 5.95195 44.9735 3.74918 41.3629 2.25033C37.7522 0.751481 33.8793 -0.0134403 29.97 0.000178709V0.000178709ZM30 5.01017C36.6 5.01017 42.78 7.59017 47.4599 12.2702C49.7568 14.5662 51.5777 17.2931 52.8184 20.2944C54.0591 23.2958 54.6951 26.5125 54.6899 29.7601C54.6899 43.3801 43.5899 54.4501 29.97 54.4501C25.53 54.4501 21.18 53.2801 17.4 51.0001L16.5 50.4901L7.13999 52.9501L9.62999 43.8301L9.02999 42.8701C6.55181 38.9362 5.24103 34.3796 5.24999 29.7301C5.27999 16.1102 16.35 5.01017 30 5.01017V5.01017ZM19.44 15.9902C18.96 15.9902 18.15 16.1702 17.46 16.9202C16.8 17.6702 14.85 19.5002 14.85 23.1302C14.85 26.7902 17.52 30.3001 17.85 30.8101C18.27 31.3201 23.13 38.8201 30.6 42.0001C32.37 42.8101 33.75 43.2601 34.83 43.5901C36.6 44.1601 38.22 44.0701 39.51 43.8901C40.95 43.6801 43.8899 42.0901 44.5199 40.3501C45.1499 38.6101 45.1499 37.1401 44.9699 36.8101C44.7599 36.5101 44.2799 36.3301 43.5299 36.0001C42.7799 35.5801 39.12 33.7801 38.46 33.5401C37.77 33.3001 37.35 33.1801 36.78 33.9001C36.3 34.6501 34.86 36.3301 34.44 36.8101C33.99 37.3201 33.57 37.3801 32.85 37.0201C32.07 36.6301 29.67 35.8501 26.85 33.3301C24.63 31.3501 23.16 28.9202 22.71 28.1702C22.35 27.4502 22.68 27.0002 23.04 26.6702C23.37 26.3402 23.85 25.8002 24.15 25.3502C24.54 24.9302 24.66 24.6002 24.9 24.1202C25.14 23.6102 25.02 23.1902 24.84 22.8302C24.66 22.5002 23.16 18.7802 22.53 17.3102C21.93 15.8702 21.33 16.0502 20.85 16.0202C20.43 16.0202 19.95 15.9902 19.44 15.9902V15.9902Z" fill="white"/>
</svg>
